<svg width="20" height="20" viewBox="0 0 20 20" fill="none" xmlns="http://www.w3.org/2000/svg">
<path fill-rule="evenodd" clip-rule="evenodd" d="M17.0418 17.1002C18.7583 15.3977 19.8608 13.0771 19.9877 10.5H20V9.5H19.9877C19.8608 6.92288 18.7583 4.60229 17.0418 2.89982C16.8313 2.69096 16.6114 2.49141 16.3831 2.30183C16.3537 2.27744 16.3241 2.25321 16.2945 2.22915C14.5757 0.835212 12.3854 0 10 0C7.61461 0 5.42429 0.83521 3.70552 2.22915C3.46484 2.42435 3.2334 2.6305 3.01197 2.84685L2.95817 2.89982C1.24167 4.60229 0.139184 6.92288 0.0122825 9.5H0V10.5H0.0122825C0.272798 15.7906 4.64481 20 10 20C12.3854 20 14.5757 19.1648 16.2945 17.7708C16.5547 17.5598 16.8042 17.3359 17.0418 17.1002ZM10.5 18.9162C11.1894 18.6892 11.96 17.9861 12.6411 16.6239C12.6981 16.5099 12.7537 16.3926 12.8078 16.2721C12.0956 16.1276 11.3197 16.0351 10.5 16.0082V18.9162ZM9.5 16.0082V18.9162C8.81057 18.6892 8.04 17.9861 7.35889 16.6239C7.30193 16.5099 7.24633 16.3926 7.19218 16.2721C7.90438 16.1276 8.68034 16.0351 9.5 16.0082ZM10.5 15.0077C11.4471 15.0369 12.3496 15.1485 13.1792 15.3283C13.6467 13.9662 13.9466 12.3119 13.9935 10.5H10.5V15.0077ZM13.7927 16.5164C13.4303 17.3594 12.9989 18.0801 12.516 18.6436C13.5813 18.334 14.5652 17.8328 15.4276 17.1798C15.3578 17.1417 15.2851 17.1037 15.2097 17.066C14.7929 16.8576 14.317 16.672 13.7927 16.5164ZM16.233 16.4923C15.651 16.1311 14.9461 15.8216 14.15 15.5796C14.6432 14.1152 14.9477 12.3755 14.9939 10.5H18.9863C18.8576 12.8513 17.8263 14.9622 16.233 16.4923ZM9.5 15.0077C8.55292 15.0369 7.65043 15.1485 6.82084 15.3283C6.3533 13.9662 6.05336 12.3119 6.00645 10.5H9.5V15.0077ZM5.85005 15.5796C5.35685 14.1152 5.05232 12.3755 5.00614 10.5H1.01365C1.14241 12.8513 2.1737 14.9622 3.76701 16.4923C4.34897 16.1311 5.05392 15.8216 5.85005 15.5796ZM4.57237 17.1798C5.43486 17.8328 6.41867 18.334 7.48402 18.6436C7.00109 18.0801 6.56966 17.3594 6.20727 16.5165C5.68302 16.672 5.20715 16.8576 4.79038 17.066C4.71492 17.1037 4.64227 17.1417 4.57237 17.1798ZM18.9863 9.5H14.9939C14.9477 7.62448 14.6432 5.88482 14.15 4.4204C14.9461 4.1784 15.651 3.86886 16.233 3.5077C17.8263 5.03776 18.8576 7.1487 18.9863 9.5ZM15.2096 2.934C14.7929 3.14239 14.317 3.32797 13.7927 3.48355C13.4303 2.64064 12.9989 1.91989 12.516 1.3564C13.5813 1.66597 14.5651 2.16716 15.4276 2.82018C15.3577 2.85831 15.2851 2.89627 15.2096 2.934ZM1.01365 9.5C1.14241 7.1487 2.17369 5.03776 3.767 3.5077C4.34896 3.86886 5.05391 4.1784 5.85004 4.4204C5.35685 5.88482 5.05232 7.62448 5.00614 9.5H1.01365ZM4.79036 2.934C5.20713 3.14239 5.68301 3.32797 6.20726 3.48355C6.56965 2.64064 7.00109 1.91989 7.48401 1.3564C6.41866 1.66597 5.43485 2.16716 4.57236 2.82018C4.64226 2.85831 4.7149 2.89627 4.79036 2.934ZM6.00645 9.5C6.05336 7.68807 6.3533 6.03378 6.82083 4.6717C7.65043 4.85152 8.55292 4.96311 9.5 4.99231V9.5H6.00645ZM7.19218 3.72786C7.90438 3.87241 8.68034 3.96489 9.5 3.99182V1.08383C8.81057 1.31082 8.04 2.01393 7.35889 3.37615C7.30193 3.49008 7.24633 3.60736 7.19218 3.72786ZM10.5 1.08383V3.99182C11.3197 3.96489 12.0956 3.87241 12.8078 3.72786C12.7537 3.60736 12.6981 3.49008 12.6411 3.37615C11.96 2.01393 11.1894 1.31082 10.5 1.08383ZM13.1792 4.6717C12.3496 4.85152 11.4471 4.96311 10.5 4.99231V9.5H13.9935C13.9466 7.68807 13.6467 6.03378 13.1792 4.6717Z" fill="white"/>
</svg>
