<svg width="17" height="20" viewBox="0 0 17 20" fill="none" xmlns="http://www.w3.org/2000/svg">
<path fill-rule="evenodd" clip-rule="evenodd" d="M15.5 2H14V1.4C13.9473 0.610865 13.2909 -0.0017556 12.5 3.77998e-06H1.5C0.709104 -0.0017556 0.0527246 0.610865 0 1.4V16.6C0.0527246 17.3891 0.709104 18.0018 1.5 18H3V18.6C3.05272 19.3891 3.7091 20.0018 4.5 20H15.5C16.2909 20.0018 16.9473 19.3891 17 18.6V3.4C16.9473 2.61087 16.2909 1.99824 15.5 2ZM1 16.6V1.4C1.04824 1.16344 1.25862 0.995135 1.5 1H12.5C12.7414 0.995135 12.9518 1.16344 13 1.4V16.6C12.9518 16.8366 12.7414 17.0049 12.5 17H1.5C1.25862 17.0049 1.04824 16.8366 1 16.6ZM15.5 19C15.7414 19.0049 15.9518 18.8366 16 18.6V3.4C15.9518 3.16344 15.7414 2.99514 15.5 3H14V16.6C13.9473 17.3891 13.2909 18.0018 12.5 18H4V18.6C4.04824 18.8366 4.25862 19.0049 4.5 19H15.5Z" fill="white"/>
</svg>
