<svg width="24" height="24" viewBox="0 0 24 24" fill="none" xmlns="http://www.w3.org/2000/svg">
<path fill-rule="evenodd" clip-rule="evenodd" d="M12.6999 12.7009L13.3999 13.4009C14.1946 12.6911 14.634 11.6658 14.5999 10.6009C14.634 9.53597 14.1946 8.51066 13.3999 7.80089L9.89992 4.20089C8.29071 2.71429 5.80913 2.71429 4.19992 4.20089C2.71331 5.8101 2.71331 8.29168 4.19992 9.90089L7.09992 12.7009L7.79992 12.0009L4.89992 9.20089C3.79342 7.98111 3.79342 6.12068 4.89992 4.90089C6.1197 3.7944 7.98013 3.7944 9.19992 4.90089L12.6999 8.50089C13.2959 9.03322 13.6255 9.8022 13.5999 10.6009C13.5999 11.3946 13.2746 12.1535 12.6999 12.7009ZM19.7999 14.1009C21.2865 15.7101 21.2865 18.1917 19.7999 19.8009C19.0269 20.5527 17.9771 20.9509 16.8999 20.9009C15.855 20.935 14.8422 20.5371 14.0999 19.8009L10.5999 16.2009C9.80528 15.4911 9.36586 14.4658 9.39992 13.4009C9.36586 12.336 9.80528 11.3107 10.5999 10.6009L11.2999 11.3009C10.7252 11.8482 10.3999 12.6072 10.3999 13.4009C10.3744 14.1996 10.7039 14.9686 11.2999 15.5009L14.7999 19.1009C16.0197 20.2074 17.8801 20.2074 19.0999 19.1009C20.2064 17.8811 20.2064 16.0207 19.0999 14.8009L16.1999 12.0009L16.8999 11.3009L19.7999 14.1009Z" fill="#0066CC"/>
</svg>
