<svg width="24" height="24" viewBox="0 0 24 24" fill="none" xmlns="http://www.w3.org/2000/svg">
<path fill-rule="evenodd" clip-rule="evenodd" d="M15.5 16.0002C15.9721 15.3707 16.7131 15.0002 17.5 15.0002C18.8807 15.0002 20 16.1195 20 17.5002C20 18.8809 18.8807 20.0002 17.5 20.0002C16.1193 20.0002 15 18.8809 15 17.5002C14.9854 17.2951 15.0197 17.0895 15.1 16.9002L7.5 13.5002C6.85435 14.3611 5.73029 14.7122 4.70943 14.3719C3.68858 14.0316 3 13.0763 3 12.0002C3 10.9242 3.68858 9.9688 4.70943 9.62852C5.73029 9.28823 6.85435 9.63937 7.5 10.5002L15.1 7.10023C15.0197 6.91095 14.9854 6.70532 15 6.50023C15 5.27409 15.8892 4.22891 17.0995 4.03251C18.3099 3.8361 19.484 4.54644 19.8717 5.70966C20.2594 6.87288 19.7464 8.14562 18.6603 8.71468C17.5742 9.28373 16.2357 8.98114 15.5 8.00023L7.9 11.4002C7.98031 11.5895 8.01458 11.7951 8 12.0002C8.01458 12.2053 7.98031 12.4109 7.9 12.6002L15.5 16.0002ZM19 6.50023C19 5.6718 18.3284 5.00023 17.5 5.00023C16.6716 5.00023 16 5.6718 16 6.50023C16 7.32865 16.6716 8.00023 17.5 8.00023C18.3284 8.00023 19 7.32865 19 6.50023ZM5.5 13.5002C4.67157 13.5002 4 12.8287 4 12.0002C4 11.1718 4.67157 10.5002 5.5 10.5002C6.32843 10.5002 7 11.1718 7 12.0002C7 12.8287 6.32843 13.5002 5.5 13.5002ZM16 17.5002C16 18.3287 16.6716 19.0002 17.5 19.0002C18.3284 19.0002 19 18.3287 19 17.5002C19 16.6718 18.3284 16.0002 17.5 16.0002C16.6716 16.0002 16 16.6718 16 17.5002Z" fill="#0066CC"/>
</svg>
