<svg width="58" height="56" viewBox="0 0 58 56" fill="none" xmlns="http://www.w3.org/2000/svg">
<path fill-rule="evenodd" clip-rule="evenodd" d="M54.3125 0.8125H3.6875C2.94185 0.813368 2.22698 1.10996 1.69972 1.63722C1.17246 2.16448 0.875868 2.87935 0.875 3.625V52.375C0.875868 53.1207 1.17246 53.8355 1.69972 54.3628C2.22698 54.89 2.94185 55.1866 3.6875 55.1875H54.3125C55.0582 55.1866 55.773 54.89 56.3003 54.3628C56.8275 53.8355 57.1241 53.1207 57.125 52.375V3.625C57.1241 2.87935 56.8275 2.16448 56.3003 1.63722C55.773 1.10996 55.0582 0.813368 54.3125 0.8125ZM3.6875 2.6875H54.3125C54.5611 2.68778 54.7994 2.78664 54.9751 2.9624C55.1509 3.13815 55.2497 3.37645 55.25 3.625V8.3125H2.75V3.625C2.75028 3.37645 2.84914 3.13815 3.0249 2.9624C3.20065 2.78664 3.43895 2.68778 3.6875 2.6875ZM54.9751 53.0376C54.7994 53.2134 54.5611 53.3122 54.3125 53.3125H3.6875C3.43895 53.3122 3.20065 53.2134 3.0249 53.0376C2.84914 52.8619 2.75028 52.6236 2.75 52.375V10.1875H55.25V52.375C55.2497 52.6236 55.1509 52.8619 54.9751 53.0376ZM13.0625 6.4375C13.5803 6.4375 14 6.01777 14 5.5C14 4.98223 13.5803 4.5625 13.0625 4.5625C12.5447 4.5625 12.125 4.98223 12.125 5.5C12.125 6.01777 12.5447 6.4375 13.0625 6.4375ZM10.25 5.5C10.25 6.01777 9.83027 6.4375 9.3125 6.4375C8.79473 6.4375 8.375 6.01777 8.375 5.5C8.375 4.98223 8.79473 4.5625 9.3125 4.5625C9.83027 4.5625 10.25 4.98223 10.25 5.5ZM5.5625 6.4375C6.08027 6.4375 6.5 6.01777 6.5 5.5C6.5 4.98223 6.08027 4.5625 5.5625 4.5625C5.04473 4.5625 4.625 4.98223 4.625 5.5C4.625 6.01777 5.04473 6.4375 5.5625 6.4375ZM17.0871 36.7121C17.2629 36.5363 17.5014 36.4375 17.75 36.4375H40.25C40.4986 36.4375 40.7371 36.5363 40.9129 36.7121C41.0887 36.8879 41.1875 37.1264 41.1875 37.375V41.125C41.1875 41.3736 41.0887 41.6121 40.9129 41.7879C40.7371 41.9637 40.4986 42.0625 40.25 42.0625H17.75C17.5014 42.0625 17.2629 41.9637 17.0871 41.7879C16.9113 41.6121 16.8125 41.3736 16.8125 41.125V37.375C16.8125 37.1264 16.9113 36.8879 17.0871 36.7121ZM20.5625 38.3125H18.6875V40.1875H20.5625V38.3125ZM22.4375 40.1875H39.3125V38.3125H22.4375V40.1875ZM40.9129 44.2121C40.7371 44.0363 40.4986 43.9375 40.25 43.9375H17.75C17.5014 43.9375 17.2629 44.0363 17.0871 44.2121C16.9113 44.3879 16.8125 44.6264 16.8125 44.875V48.625C16.8125 48.8736 16.9113 49.1121 17.0871 49.2879C17.2629 49.4637 17.5014 49.5625 17.75 49.5625H40.25C40.4986 49.5625 40.7371 49.4637 40.9129 49.2879C41.0887 49.1121 41.1875 48.8736 41.1875 48.625V44.875C41.1875 44.6264 41.0887 44.3879 40.9129 44.2121ZM18.6875 45.8125H20.5625V47.6875H18.6875V45.8125ZM39.3125 47.6875H22.4375V45.8125H39.3125V47.6875ZM35.4778 32.2763C33.6432 33.7562 31.3571 34.5631 29 34.5627C27.5308 34.5627 26.0786 34.2486 24.7407 33.6417C23.4028 33.0348 22.21 32.149 21.2422 31.0436C19.6893 29.2703 18.7906 27.0186 18.6958 24.6634C18.6009 22.3082 19.3155 19.9916 20.7207 18.0991C22.1259 16.2067 24.1369 14.8526 26.4189 14.2624C28.7009 13.6721 31.1162 13.8813 33.2627 14.855C35.4093 15.8288 37.1576 17.5083 38.2166 19.6142C39.2755 21.72 39.5813 24.125 39.083 26.4288C38.5847 28.7327 37.3124 30.7963 35.4778 32.2763ZM29 25.1876C26.4164 25.1876 24.0603 27.1764 23.0087 30.188C23.7925 30.9799 24.7257 31.6086 25.754 32.0377C26.7824 32.4668 27.8856 32.6877 28.9999 32.6877C30.1142 32.6877 31.2175 32.4668 32.2459 32.0377C33.2742 31.6086 34.2073 30.9799 34.9912 30.188C33.9398 27.1766 31.5836 25.1876 29 25.1876ZM27.441 20.3959C27.235 20.7042 27.125 21.0667 27.125 21.4376C27.1256 21.9347 27.3233 22.4113 27.6748 22.7628C28.0263 23.1143 28.5029 23.312 29 23.3126C29.3708 23.3126 29.7334 23.2026 30.0417 22.9966C30.35 22.7906 30.5904 22.4977 30.7323 22.1551C30.8742 21.8125 30.9113 21.4355 30.839 21.0718C30.7666 20.7081 30.588 20.374 30.3258 20.1117C30.0636 19.8495 29.7295 19.6709 29.3658 19.5986C29.0021 19.5262 28.6251 19.5634 28.2825 19.7053C27.9399 19.8472 27.647 20.0875 27.441 20.3959ZM33.218 16.9412C31.9355 16.2012 30.4807 15.812 29 15.8125C27.5193 15.8121 26.0646 16.2014 24.7822 16.9414C23.4997 17.6814 22.4346 18.746 21.6939 20.0281C20.9533 21.3102 20.5633 22.7647 20.563 24.2454C20.5627 25.7261 20.9523 27.1808 21.6924 28.4632C22.7014 26.3319 24.3036 24.7218 26.1819 23.907C25.7063 23.3652 25.397 22.6977 25.291 21.9846C25.185 21.2715 25.2868 20.543 25.5842 19.8863C25.8816 19.2295 26.362 18.6725 26.9678 18.2817C27.5737 17.891 28.2793 17.6832 29.0002 17.6832C29.7212 17.6832 30.4268 17.891 31.0327 18.2817C31.6385 18.6725 32.1189 19.2295 32.4163 19.8863C32.7137 20.543 32.8155 21.2715 32.7095 21.9846C32.6035 22.6977 32.2942 23.3652 31.8186 23.907C33.6969 24.7218 35.2989 26.3319 36.308 28.4632C37.0482 27.1807 37.4377 25.726 37.4375 24.2453C37.4372 22.7646 37.0471 21.31 36.3064 20.0279C35.5657 18.7457 34.5006 17.6812 33.218 16.9412Z" fill="#0073E6"/>
</svg>
