<?xml version="1.0" encoding="UTF-8" standalone="no"?>
<!-- Created with Inkscape (http://www.inkscape.org/) -->

<svg
   version="1.1"
   id="svg1"
   width="1246.4667"
   height="294.49332"
   viewBox="0 0 1246.4667 294.49332"
   sodipodi:docname="DE_Finanziert_von_der_Europa╠êischen_Union_RG_BLACK_Outline.eps"
   xmlns:inkscape="http://www.inkscape.org/namespaces/inkscape"
   xmlns:sodipodi="http://sodipodi.sourceforge.net/DTD/sodipodi-0.dtd"
   xmlns="http://www.w3.org/2000/svg"
   xmlns:svg="http://www.w3.org/2000/svg">
  <defs
     id="defs1" />
  <sodipodi:namedview
     id="namedview1"
     pagecolor="#ffffff"
     bordercolor="#000000"
     borderopacity="0.25"
     inkscape:showpageshadow="2"
     inkscape:pageopacity="0.0"
     inkscape:pagecheckerboard="0"
     inkscape:deskcolor="#d1d1d1">
    <inkscape:page
       x="0"
       y="0"
       inkscape:label="1"
       id="page1"
       width="1246.4667"
       height="294.49332"
       margin="0"
       bleed="0" />
  </sodipodi:namedview>
  <g
     id="g1"
     inkscape:groupmode="layer"
     inkscape:label="1">
    <g
       id="group-R5">
      <path
         id="path2"
         d="M 2995.08,158.281 H 159.055 V 2048.98 H 2995.08 Z M 102.336,2103.9 V 101.059 H 3051.79 V 2103.9 H 102.336"
         style="fill:#100f0d;fill-opacity:1;fill-rule:nonzero;stroke:none"
         transform="matrix(0.13333333,0,0,-0.13333333,0,294.49333)" />
      <path
         id="path3"
         d="m 1516.64,1637.02 59.84,43.67 59.85,-43.67 -22.78,70.63 60.79,43.67 h -74.93 l -22.93,71.48 -22.93,-71.56 -74.88,0.08 60.74,-43.67 -22.77,-70.63"
         style="fill:#100f0d;fill-opacity:1;fill-rule:nonzero;stroke:none"
         transform="matrix(0.13333333,0,0,-0.13333333,0,294.49333)" />
      <path
         id="path4"
         d="m 1206.95,1553.82 59.84,43.67 59.81,-43.67 -22.74,70.63 60.75,43.68 h -74.93 l -22.92,71.55 -22.93,-71.64 -74.89,0.09 60.74,-43.68 -22.73,-70.63"
         style="fill:#100f0d;fill-opacity:1;fill-rule:nonzero;stroke:none"
         transform="matrix(0.13333333,0,0,-0.13333333,0,294.49333)" />
      <path
         id="path5"
         d="m 1040.19,1512.57 -22.93,-71.64 -74.881,0.08 60.741,-43.67 -22.772,-70.63 59.842,43.67 59.84,-43.67 -22.77,70.63 60.74,43.67 h -74.88 l -22.93,71.56"
         style="fill:#100f0d;fill-opacity:1;fill-rule:nonzero;stroke:none"
         transform="matrix(0.13333333,0,0,-0.13333333,0,294.49333)" />
      <path
         id="path6"
         d="m 957.066,1061.08 59.814,-43.67 -22.743,70.62 60.743,43.68 h -74.884 l -22.93,71.56 -22.929,-71.72 -74.918,0.16 60.777,-43.68 -22.769,-70.62 59.839,43.67"
         style="fill:#100f0d;fill-opacity:1;fill-rule:nonzero;stroke:none"
         transform="matrix(0.13333333,0,0,-0.13333333,0,294.49333)" />
      <path
         id="path7"
         d="m 1063.12,821.48 -22.93,71.559 -22.93,-71.641 -74.881,0.082 60.741,-43.671 -22.772,-70.629 59.842,43.75 59.84,-43.75 -22.77,70.629 60.74,43.671 h -74.88"
         style="fill:#100f0d;fill-opacity:1;fill-rule:nonzero;stroke:none"
         transform="matrix(0.13333333,0,0,-0.13333333,0,294.49333)" />
      <path
         id="path8"
         d="m 1290.15,594.449 -22.93,71.481 -22.89,-71.559 -74.92,0.078 60.74,-43.668 -22.73,-70.633 59.84,43.672 59.8,-43.672 -22.73,70.633 60.74,43.668 h -74.92"
         style="fill:#100f0d;fill-opacity:1;fill-rule:nonzero;stroke:none"
         transform="matrix(0.13333333,0,0,-0.13333333,0,294.49333)" />
      <path
         id="path9"
         d="m 1599.45,512.18 -22.93,71.558 -22.89,-71.636 -74.92,0.078 60.74,-43.668 -22.73,-70.633 59.84,43.672 59.8,-43.672 -22.77,70.633 60.78,43.668 h -74.92"
         style="fill:#100f0d;fill-opacity:1;fill-rule:nonzero;stroke:none"
         transform="matrix(0.13333333,0,0,-0.13333333,0,294.49333)" />
      <path
         id="path10"
         d="m 1908.75,594.449 -22.89,71.481 -22.97,-71.559 -74.84,0.078 60.7,-43.668 -22.73,-70.633 59.84,43.672 59.84,-43.672 -22.81,70.633 60.78,43.668 h -74.92"
         style="fill:#100f0d;fill-opacity:1;fill-rule:nonzero;stroke:none"
         transform="matrix(0.13333333,0,0,-0.13333333,0,294.49333)" />
      <path
         id="path11"
         d="m 2135.86,821.48 -22.97,71.559 -22.97,-71.641 -74.84,0.082 60.78,-43.671 -22.81,-70.629 59.84,43.75 59.84,-43.75 -22.81,70.629 60.78,43.671 h -74.84"
         style="fill:#100f0d;fill-opacity:1;fill-rule:nonzero;stroke:none"
         transform="matrix(0.13333333,0,0,-0.13333333,0,294.49333)" />
      <path
         id="path12"
         d="m 2292.97,1132.57 h -74.92 l -22.97,71.56 -22.89,-71.64 -74.92,0.08 60.78,-43.67 -22.74,-70.63 59.77,43.75 59.84,-43.75 -22.73,70.63 60.78,43.67"
         style="fill:#100f0d;fill-opacity:1;fill-rule:nonzero;stroke:none"
         transform="matrix(0.13333333,0,0,-0.13333333,0,294.49333)" />
      <path
         id="path13"
         d="m 2053.04,1327.65 59.84,43.67 59.85,-43.67 -22.81,70.63 60.78,43.6 h -74.85 l -22.97,71.55 -22.96,-71.64 -74.85,0.09 60.78,-43.6 -22.81,-70.63"
         style="fill:#100f0d;fill-opacity:1;fill-rule:nonzero;stroke:none"
         transform="matrix(0.13333333,0,0,-0.13333333,0,294.49333)" />
      <path
         id="path14"
         d="m 1886.72,1739.6 -22.89,-71.64 -74.92,0.17 60.7,-43.75 -22.73,-70.64 59.92,43.75 59.76,-43.75 -22.73,70.64 60.78,43.75 h -75 l -22.89,71.47"
         style="fill:#100f0d;fill-opacity:1;fill-rule:nonzero;stroke:none"
         transform="matrix(0.13333333,0,0,-0.13333333,0,294.49333)" />
      <text
         id="text14"
         xml:space="preserve"
         transform="matrix(1.3333333,0,0,1.3333333,440.91467,273.3012)"><tspan
           id="tspan14"
           style="font-variant:normal;font-weight:normal;font-size:51px;font-family:Arial;writing-mode:lr-tb;fill:#100f0d;fill-opacity:1;fill-rule:nonzero;stroke:none"
           x="0"
           dx="0 0.00910646 0.0072997799 0 -0.0081054801 -0.0090820296 0.0083007598 0.0072754002 0.0073242099 0 0.0072754002 -0.0080566201 0.0080566201 0.0073242099 0.0083007598"
           y="0">NextGenerationEU</tspan></text>
      <path
         id="path15"
         d="m 3346.31,1630.13 v 422.33 h 289.53 v -71.44 h -204.26 v -99.97 h 176.31 v -71.44 h -176.31 v -179.48 h -85.27"
         style="fill:#100f0d;fill-opacity:1;fill-rule:nonzero;stroke:none"
         transform="matrix(0.13333333,0,0,-0.13333333,0,294.49333)" />
      <path
         id="path16"
         d="m 3705.55,1630.13 v 305.94 h 80.96 v -305.94 z m 0,347.43 v 74.9 h 80.96 v -74.9 h -80.96"
         style="fill:#100f0d;fill-opacity:1;fill-rule:nonzero;stroke:none"
         transform="matrix(0.13333333,0,0,-0.13333333,0,294.49333)" />
      <path
         id="path17"
         d="m 4147.78,1630.13 h -80.96 v 156.14 c 0,33.03 -1.73,54.4 -5.19,64.1 -3.45,9.7 -9.07,17.24 -16.85,22.61 -7.78,5.38 -17.14,8.07 -28.09,8.07 -14.02,0 -26.6,-3.84 -37.74,-11.52 -11.14,-7.69 -18.77,-17.86 -22.9,-30.54 -4.13,-12.67 -6.19,-36.11 -6.19,-70.29 v -138.57 h -80.95 v 305.94 h 75.18 v -44.93 c 26.69,34.56 60.31,51.85 100.83,51.85 17.87,0 34.18,-3.22 48.98,-9.65 14.78,-6.44 25.98,-14.65 33.56,-24.63 7.58,-9.99 12.86,-21.32 15.84,-34 2.98,-12.67 4.48,-30.82 4.48,-54.44 v -190.14"
         style="fill:#100f0d;fill-opacity:1;fill-rule:nonzero;stroke:none"
         transform="matrix(0.13333333,0,0,-0.13333333,0,294.49333)" />
      <path
         id="path18"
         d="m 4398.69,1777.05 c -10.37,-3.46 -26.79,-7.59 -49.26,-12.39 -22.47,-4.8 -37.16,-9.5 -44.08,-14.11 -10.56,-7.49 -15.85,-17 -15.85,-28.52 0,-11.33 4.22,-21.13 12.68,-29.39 8.45,-8.26 19.2,-12.38 32.27,-12.38 14.59,0 28.52,4.79 41.76,14.4 9.81,7.29 16.23,16.23 19.31,26.79 2.11,6.92 3.17,20.07 3.17,39.47 z m -108.32,65.68 -73.46,13.26 c 8.25,29.57 22.47,51.47 42.63,65.68 20.17,14.21 50.13,21.32 89.89,21.32 36.1,0 62.98,-4.28 80.66,-12.82 17.67,-8.54 30.11,-19.4 37.3,-32.55 7.21,-13.16 10.82,-37.31 10.82,-72.46 l -0.87,-94.49 c 0,-26.89 1.29,-46.72 3.88,-59.49 2.6,-12.77 7.44,-26.46 14.55,-41.05 h -80.08 c -2.12,5.37 -4.71,13.34 -7.78,23.91 -1.35,4.8 -2.3,7.97 -2.89,9.51 -13.83,-13.45 -28.61,-23.53 -44.35,-30.25 -15.76,-6.72 -32.56,-10.09 -50.42,-10.09 -31.51,0 -56.32,8.55 -74.48,25.65 -18.14,17.09 -27.21,38.69 -27.21,64.82 0,17.28 4.12,32.69 12.38,46.23 8.25,13.54 19.82,23.91 34.72,31.12 14.88,7.19 36.33,13.48 64.38,18.86 37.83,7.11 64.05,13.74 78.65,19.88 v 8.07 c 0,15.55 -3.84,26.64 -11.52,33.27 -7.69,6.62 -22.19,9.94 -43.51,9.94 -14.4,0 -25.63,-2.84 -33.7,-8.5 -8.06,-5.66 -14.6,-15.6 -19.59,-29.82"
         style="fill:#100f0d;fill-opacity:1;fill-rule:nonzero;stroke:none"
         transform="matrix(0.13333333,0,0,-0.13333333,0,294.49333)" />
      <path
         id="path19"
         d="m 4836.3,1630.13 h -80.96 v 156.14 c 0,33.03 -1.72,54.4 -5.18,64.1 -3.46,9.7 -9.07,17.24 -16.86,22.61 -7.77,5.38 -17.14,8.07 -28.08,8.07 -14.03,0 -26.6,-3.84 -37.75,-11.52 -11.13,-7.69 -18.77,-17.86 -22.9,-30.54 -4.13,-12.67 -6.19,-36.11 -6.19,-70.29 v -138.57 h -80.95 v 305.94 h 75.19 v -44.93 c 26.69,34.56 60.3,51.85 100.83,51.85 17.86,0 34.18,-3.22 48.97,-9.65 14.79,-6.44 25.98,-14.65 33.57,-24.63 7.58,-9.99 12.86,-21.32 15.84,-34 2.98,-12.67 4.47,-30.82 4.47,-54.44 v -190.14"
         style="fill:#100f0d;fill-opacity:1;fill-rule:nonzero;stroke:none"
         transform="matrix(0.13333333,0,0,-0.13333333,0,294.49333)" />
      <path
         id="path20"
         d="m 4885.85,1630.13 v 63.09 l 114.66,131.66 c 18.82,21.5 32.74,36.77 41.78,45.8 -9.42,-0.57 -21.81,-0.96 -37.17,-1.15 l -108.03,-0.58 v 67.12 h 252.93 v -57.32 l -116.95,-134.83 -41.2,-44.65 c 22.47,1.34 36.39,2.02 41.76,2.02 h 125.33 v -71.16 h -273.11"
         style="fill:#100f0d;fill-opacity:1;fill-rule:nonzero;stroke:none"
         transform="matrix(0.13333333,0,0,-0.13333333,0,294.49333)" />
      <path
         id="path21"
         d="m 5213.4,1630.13 v 305.94 h 80.96 v -305.94 z m 0,347.43 v 74.9 h 80.96 v -74.9 h -80.96"
         style="fill:#100f0d;fill-opacity:1;fill-rule:nonzero;stroke:none"
         transform="matrix(0.13333333,0,0,-0.13333333,0,294.49333)" />
      <path
         id="path22"
         d="m 5559.1,1809.32 c -0.57,23.43 -6.63,41.24 -18.15,53.44 -11.52,12.19 -25.54,18.29 -42.05,18.29 -17.68,0 -32.27,-6.43 -43.79,-19.3 -11.52,-12.87 -17.2,-30.35 -17,-52.43 z m -4.61,-81.82 80.67,-13.54 c -10.37,-29.58 -26.75,-52.1 -49.12,-67.55 -22.38,-15.46 -50.37,-23.2 -83.98,-23.2 -53.2,0 -92.58,17.38 -118.11,52.15 -20.17,27.84 -30.25,62.99 -30.25,105.44 0,50.7 13.25,90.41 39.75,119.13 26.5,28.7 60.02,43.06 100.55,43.06 45.51,0 81.42,-15.03 107.74,-45.09 26.31,-30.06 38.9,-76.1 37.74,-138.13 h -202.81 c 0.57,-24.01 7.1,-42.69 19.59,-56.04 12.48,-13.35 28.04,-20.02 46.66,-20.02 12.68,0 23.34,3.46 31.98,10.38 8.65,6.91 15.17,18.05 19.59,33.41"
         style="fill:#100f0d;fill-opacity:1;fill-rule:nonzero;stroke:none"
         transform="matrix(0.13333333,0,0,-0.13333333,0,294.49333)" />
      <path
         id="path23"
         d="m 5782.95,1630.13 h -80.96 v 305.94 h 75.2 v -43.5 c 12.86,20.55 24.43,34.09 34.72,40.63 10.27,6.52 21.93,9.79 35,9.79 18.43,0 36.2,-5.09 53.29,-15.27 l -25.06,-70.58 c -13.64,8.83 -26.32,13.25 -38.03,13.25 -11.34,0 -20.94,-3.12 -28.81,-9.36 -7.88,-6.24 -14.07,-17.53 -18.58,-33.85 -4.51,-16.33 -6.77,-50.51 -6.77,-102.56 v -94.49"
         style="fill:#100f0d;fill-opacity:1;fill-rule:nonzero;stroke:none"
         transform="matrix(0.13333333,0,0,-0.13333333,0,294.49333)" />
      <path
         id="path24"
         d="m 6075.35,1936.07 v -64.52 h -55.31 v -123.31 c 0,-24.97 0.53,-39.51 1.58,-43.64 1.06,-4.14 3.46,-7.54 7.21,-10.23 3.74,-2.69 8.3,-4.03 13.68,-4.03 7.49,0 18.34,2.59 32.56,7.78 l 6.91,-62.81 c -18.82,-8.06 -40.14,-12.1 -63.96,-12.1 -14.59,0 -27.75,2.46 -39.46,7.35 -11.72,4.9 -20.32,11.24 -25.78,19.01 -5.48,7.79 -9.27,18.3 -11.38,31.55 -1.74,9.41 -2.6,28.42 -2.6,57.04 v 133.39 h -37.17 v 64.52 h 37.17 v 60.79 l 81.24,47.25 v -108.04 h 55.31"
         style="fill:#100f0d;fill-opacity:1;fill-rule:nonzero;stroke:none"
         transform="matrix(0.13333333,0,0,-0.13333333,0,294.49333)" />
      <path
         id="path25"
         d="m 6379.57,1630.13 -123.3,305.94 h 84.99 l 57.62,-156.14 16.71,-52.14 c 4.41,13.25 7.2,21.99 8.36,26.22 2.68,8.64 5.56,17.28 8.63,25.92 l 58.2,156.14 h 83.26 l -121.58,-305.94 h -72.89"
         style="fill:#100f0d;fill-opacity:1;fill-rule:nonzero;stroke:none"
         transform="matrix(0.13333333,0,0,-0.13333333,0,294.49333)" />
      <path
         id="path26"
         d="m 6687.82,1783.1 c 0,-30.34 7.2,-53.58 21.62,-69.71 14.39,-16.14 32.15,-24.2 53.29,-24.2 21.12,0 38.83,8.06 53.15,24.2 14.31,16.13 21.47,39.56 21.47,70.29 0,29.96 -7.16,53.01 -21.47,69.14 -14.32,16.13 -32.03,24.2 -53.15,24.2 -21.14,0 -38.9,-8.07 -53.29,-24.2 -14.42,-16.13 -21.62,-39.37 -21.62,-69.72 z m -82.96,4.33 c 0,26.88 6.63,52.91 19.87,78.07 13.26,25.15 32.03,44.36 56.33,57.61 24.28,13.25 51.42,19.88 81.38,19.88 46.28,0 84.21,-15.03 113.79,-45.09 29.57,-30.06 44.37,-68.04 44.37,-113.93 0,-46.29 -14.93,-84.66 -44.8,-115.09 -29.87,-30.45 -67.46,-45.67 -112.79,-45.67 -28.04,0 -54.79,6.34 -80.22,19.02 -25.45,12.67 -44.8,31.26 -58.06,55.74 -13.24,24.49 -19.87,54.31 -19.87,89.46"
         style="fill:#100f0d;fill-opacity:1;fill-rule:nonzero;stroke:none"
         transform="matrix(0.13333333,0,0,-0.13333333,0,294.49333)" />
      <path
         id="path27"
         d="m 7262.27,1630.13 h -80.96 v 156.14 c 0,33.03 -1.73,54.4 -5.19,64.1 -3.45,9.7 -9.07,17.24 -16.85,22.61 -7.77,5.38 -17.14,8.07 -28.09,8.07 -14.02,0 -26.6,-3.84 -37.74,-11.52 -11.13,-7.69 -18.77,-17.86 -22.9,-30.54 -4.13,-12.67 -6.19,-36.11 -6.19,-70.29 v -138.57 h -80.95 v 305.94 h 75.19 v -44.93 c 26.69,34.56 60.3,51.85 100.83,51.85 17.86,0 34.18,-3.22 48.97,-9.65 14.79,-6.44 25.98,-14.65 33.56,-24.63 7.58,-9.99 12.87,-21.32 15.84,-34 2.98,-12.67 4.48,-30.82 4.48,-54.44 v -190.14"
         style="fill:#100f0d;fill-opacity:1;fill-rule:nonzero;stroke:none"
         transform="matrix(0.13333333,0,0,-0.13333333,0,294.49333)" />
      <path
         id="path28"
         d="m 7572.81,1789.73 c 0,-32.65 4.52,-56.28 13.55,-70.87 13.06,-21.13 31.3,-31.69 54.74,-31.69 18.62,0 34.47,7.92 47.53,23.77 13.06,15.84 19.59,39.51 19.59,71.01 0,35.15 -6.34,60.45 -19.02,75.91 -12.67,15.46 -28.91,23.19 -48.68,23.19 -19.21,0 -35.29,-7.63 -48.25,-22.91 -12.97,-15.26 -19.46,-38.07 -19.46,-68.41 z m 216.08,-159.6 h -75.2 v 44.94 c -12.49,-17.48 -27.22,-30.49 -44.22,-39.03 -17,-8.55 -34.14,-12.83 -51.42,-12.83 -35.15,0 -65.26,14.17 -90.31,42.49 -25.07,28.34 -37.6,67.85 -37.6,118.55 0,51.86 12.2,91.28 36.58,118.26 24.4,26.98 55.22,40.48 92.48,40.48 34.18,0 63.76,-14.21 88.73,-42.64 v 152.11 h 80.96 v -422.33"
         style="fill:#100f0d;fill-opacity:1;fill-rule:nonzero;stroke:none"
         transform="matrix(0.13333333,0,0,-0.13333333,0,294.49333)" />
      <path
         id="path29"
         d="m 8050.47,1809.32 c -0.58,23.43 -6.63,41.24 -18.15,53.44 -11.53,12.19 -25.54,18.29 -42.05,18.29 -17.68,0 -32.27,-6.43 -43.79,-19.3 -11.53,-12.87 -17.2,-30.35 -17.01,-52.43 z m -4.61,-81.82 80.67,-13.54 c -10.38,-29.58 -26.75,-52.1 -49.13,-67.55 -22.37,-15.46 -50.37,-23.2 -83.97,-23.2 -53.2,0 -92.58,17.38 -118.12,52.15 -20.16,27.84 -30.24,62.99 -30.24,105.44 0,50.7 13.24,90.41 39.75,119.13 26.5,28.7 60.02,43.06 100.54,43.06 45.52,0 81.43,-15.03 107.75,-45.09 26.31,-30.06 38.89,-76.1 37.74,-138.13 h -202.81 c 0.57,-24.01 7.1,-42.69 19.59,-56.04 12.48,-13.35 28.04,-20.02 46.66,-20.02 12.67,0 23.34,3.46 31.98,10.38 8.64,6.91 15.17,18.05 19.59,33.41"
         style="fill:#100f0d;fill-opacity:1;fill-rule:nonzero;stroke:none"
         transform="matrix(0.13333333,0,0,-0.13333333,0,294.49333)" />
      <path
         id="path30"
         d="m 8274.32,1630.13 h -80.96 v 305.94 h 75.2 v -43.5 c 12.86,20.55 24.43,34.09 34.71,40.63 10.28,6.52 21.94,9.79 35,9.79 18.44,0 36.2,-5.09 53.29,-15.27 l -25.05,-70.58 c -13.65,8.83 -26.32,13.25 -38.03,13.25 -11.34,0 -20.94,-3.12 -28.81,-9.36 -7.88,-6.24 -14.07,-17.53 -18.58,-33.85 -4.52,-16.33 -6.77,-50.51 -6.77,-102.56 v -94.49"
         style="fill:#100f0d;fill-opacity:1;fill-rule:nonzero;stroke:none"
         transform="matrix(0.13333333,0,0,-0.13333333,0,294.49333)" />
      <path
         id="path31"
         d="m 3345.74,922.129 v 422.331 h 313.15 v -71.44 h -227.87 v -93.63 h 212.03 v -71.16 H 3431.02 V 993.289 h 235.94 v -71.16 h -321.22"
         style="fill:#100f0d;fill-opacity:1;fill-rule:nonzero;stroke:none"
         transform="matrix(0.13333333,0,0,-0.13333333,0,294.49333)" />
      <path
         id="path32"
         d="m 3940.06,922.129 v 45.812 c -11.14,-16.332 -25.78,-29.203 -43.93,-38.601 -18.15,-9.418 -37.31,-14.121 -57.48,-14.121 -20.55,0 -38.99,4.519 -55.31,13.543 -16.33,9.019 -28.13,21.699 -35.44,38.027 -7.29,16.32 -10.93,38.891 -10.93,67.691 v 193.6 h 80.94 v -140.59 c 0,-43.02 1.49,-69.38 4.47,-79.08 2.97,-9.699 8.39,-17.379 16.27,-23.051 7.88,-5.66 17.87,-8.488 29.97,-8.488 13.82,0 26.22,3.789 37.15,11.367 10.96,7.59 18.44,17.012 22.48,28.242 4.03,11.24 6.05,38.75 6.05,82.54 v 129.06 h 80.95 V 922.129 h -75.19"
         style="fill:#100f0d;fill-opacity:1;fill-rule:nonzero;stroke:none"
         transform="matrix(0.13333333,0,0,-0.13333333,0,294.49333)" />
      <path
         id="path33"
         d="m 4176.58,922.129 h -80.95 v 305.951 h 75.19 v -43.5 c 12.86,20.54 24.44,34.08 34.72,40.62 10.27,6.53 21.93,9.79 35,9.79 18.44,0 36.2,-5.09 53.29,-15.27 l -25.06,-70.58 c -13.64,8.84 -26.32,13.25 -38.03,13.25 -11.33,0 -20.93,-3.12 -28.8,-9.36 -7.89,-6.24 -14.08,-17.53 -18.59,-33.85 -4.51,-16.33 -6.77,-50.51 -6.77,-102.56 v -94.491"
         style="fill:#100f0d;fill-opacity:1;fill-rule:nonzero;stroke:none"
         transform="matrix(0.13333333,0,0,-0.13333333,0,294.49333)" />
      <path
         id="path34"
         d="m 4392.93,1075.1 c 0,-30.34 7.2,-53.57 21.61,-69.71 14.4,-16.128 32.16,-24.199 53.29,-24.199 21.13,0 38.84,8.071 53.16,24.199 14.31,16.14 21.46,39.56 21.46,70.29 0,29.96 -7.15,53.01 -21.46,69.14 -14.32,16.13 -32.03,24.2 -53.16,24.2 -21.13,0 -38.89,-8.07 -53.29,-24.2 -14.41,-16.13 -21.61,-39.37 -21.61,-69.72 z m -82.97,4.33 c 0,26.88 6.63,52.91 19.88,78.07 13.26,25.15 32.03,44.36 56.32,57.61 24.29,13.26 51.43,19.88 81.39,19.88 46.28,0 84.21,-15.03 113.79,-45.09 29.57,-30.05 44.37,-68.03 44.37,-113.93 0,-46.29 -14.94,-84.65 -44.8,-115.091 -29.87,-30.438 -67.46,-45.66 -112.79,-45.66 -28.04,0 -54.79,6.332 -80.23,19.011 -25.45,12.68 -44.79,31.258 -58.05,55.739 -13.25,24.491 -19.88,54.311 -19.88,89.461"
         style="fill:#100f0d;fill-opacity:1;fill-rule:nonzero;stroke:none"
         transform="matrix(0.13333333,0,0,-0.13333333,0,294.49333)" />
      <path
         id="path35"
         d="m 4766.88,1080.29 c 0,-34.38 6.8,-59.78 20.45,-76.2 13.63,-16.418 30.25,-24.629 49.84,-24.629 18.82,0 34.46,7.527 46.95,22.609 12.48,15.08 18.73,39.81 18.73,74.19 0,32.07 -6.44,55.89 -19.3,71.44 -12.87,15.56 -28.81,23.34 -47.83,23.34 -19.78,0 -36.2,-7.64 -49.25,-22.9 -13.07,-15.28 -19.59,-37.89 -19.59,-67.85 z m -80.1,147.79 h 75.49 v -44.94 c 9.78,15.36 23.04,27.84 39.74,37.45 16.72,9.6 35.25,14.4 55.61,14.4 35.53,0 65.68,-13.92 90.46,-41.77 24.77,-27.85 37.16,-66.65 37.16,-116.39 0,-51.09 -12.48,-90.791 -37.44,-119.119 -24.98,-28.332 -55.23,-42.492 -90.76,-42.492 -16.9,0 -32.21,3.371 -45.94,10.082 -13.74,6.719 -28.2,18.25 -43.36,34.57 V 805.738 h -80.96 v 422.342"
         style="fill:#100f0d;fill-opacity:1;fill-rule:nonzero;stroke:none"
         transform="matrix(0.13333333,0,0,-0.13333333,0,294.49333)" />
      <path
         id="path36"
         d="m 5199,1282.24 v 69.43 h 69.71 v -69.43 z m 19.3,-213.19 c -10.37,-3.45 -26.79,-7.58 -49.26,-12.38 -22.48,-4.81 -37.16,-9.51 -44.08,-14.12 -10.56,-7.49 -15.85,-16.99 -15.85,-28.52 0,-11.33 4.22,-21.132 12.68,-29.382 8.45,-8.257 19.2,-12.386 32.26,-12.386 14.59,0 28.53,4.797 41.77,14.398 9.81,7.301 16.23,16.23 19.31,26.8 2.11,6.91 3.17,20.07 3.17,39.46 z m -143.18,213.19 v 69.43 h 69.43 v -69.43 z m 34.86,-147.5 -73.46,13.25 c 8.25,29.58 22.47,51.47 42.63,65.69 20.17,14.2 50.13,21.31 89.89,21.31 36.1,0 62.98,-4.28 80.66,-12.82 17.67,-8.54 30.11,-19.4 37.3,-32.55 7.21,-13.16 10.81,-37.31 10.81,-72.46 l -0.86,-94.48 c 0,-26.899 1.29,-46.719 3.88,-59.489 2.6,-12.781 7.44,-26.461 14.55,-41.062 h -80.09 c -2.11,5.383 -4.7,13.351 -7.77,23.922 -1.35,4.789 -2.3,7.969 -2.89,9.5 -13.83,-13.449 -28.61,-23.531 -44.35,-30.25 -15.76,-6.711 -32.56,-10.082 -50.42,-10.082 -31.51,0 -56.32,8.543 -74.48,25.64 -18.14,17.09 -27.21,38.692 -27.21,64.821 0,17.28 4.12,32.69 12.38,46.24 8.25,13.53 19.82,23.9 34.72,31.11 14.88,7.2 36.33,13.49 64.38,18.87 37.83,7.1 64.05,13.73 78.65,19.87 v 8.07 c 0,15.56 -3.85,26.65 -11.52,33.28 -7.69,6.62 -22.19,9.93 -43.51,9.93 -14.4,0 -25.63,-2.83 -33.7,-8.5 -8.06,-5.66 -14.6,-15.6 -19.59,-29.81"
         style="fill:#100f0d;fill-opacity:1;fill-rule:nonzero;stroke:none"
         transform="matrix(0.13333333,0,0,-0.13333333,0,294.49333)" />
      <path
         id="path37"
         d="m 5377.6,922.129 v 305.951 h 80.96 V 922.129 Z m 0,347.431 v 74.9 h 80.96 v -74.9 h -80.96"
         style="fill:#100f0d;fill-opacity:1;fill-rule:nonzero;stroke:none"
         transform="matrix(0.13333333,0,0,-0.13333333,0,294.49333)" />
      <path
         id="path38"
         d="m 5513.01,1009.43 81.24,12.38 c 3.46,-15.75 10.47,-27.708 21.03,-35.869 10.56,-8.16 25.35,-12.242 44.37,-12.242 20.93,0 36.68,3.84 47.25,11.531 7.1,5.372 10.65,12.571 10.65,21.6 0,6.14 -1.92,11.24 -5.76,15.27 -4.03,3.84 -13.07,7.39 -27.08,10.66 -65.3,14.4 -106.69,27.55 -124.16,39.46 -24.2,16.52 -36.31,39.47 -36.31,68.86 0,26.5 10.47,48.78 31.41,66.83 20.92,18.05 53.39,27.08 97.37,27.08 41.86,0 72.98,-6.82 93.34,-20.45 20.35,-13.64 34.37,-33.81 42.06,-60.5 l -76.35,-14.12 c -3.26,11.91 -9.45,21.03 -18.57,27.37 -9.13,6.34 -22.14,9.51 -39.05,9.51 -21.3,0 -36.58,-2.98 -45.8,-8.93 -6.15,-4.23 -9.21,-9.7 -9.21,-16.42 0,-5.76 2.68,-10.66 8.06,-14.7 7.3,-5.38 32.5,-12.96 75.63,-22.75 43.11,-9.8 73.21,-21.81 90.31,-36.01 16.89,-14.41 25.35,-34.48 25.35,-60.21 0,-28.042 -11.72,-52.139 -35.15,-72.311 -23.43,-20.168 -58.09,-30.25 -103.99,-30.25 -41.68,0 -74.67,8.441 -98.96,25.351 -24.3,16.899 -40.19,39.852 -47.68,68.86"
         style="fill:#100f0d;fill-opacity:1;fill-rule:nonzero;stroke:none"
         transform="matrix(0.13333333,0,0,-0.13333333,0,294.49333)" />
      <path
         id="path39"
         d="m 6136.43,1137.62 -79.81,-14.41 c -2.69,15.94 -8.79,27.95 -18.29,36.02 -9.51,8.06 -21.85,12.09 -37.02,12.09 -20.17,0 -36.25,-6.96 -48.25,-20.88 -12.01,-13.93 -18.01,-37.22 -18.01,-69.86 0,-36.3 6.09,-61.94 18.29,-76.92 12.2,-14.98 28.57,-22.469 49.12,-22.469 15.36,0 27.95,4.368 37.74,13.11 9.8,8.739 16.72,23.769 20.74,45.079 l 79.51,-13.54 c -8.25,-36.488 -24.1,-64.051 -47.53,-82.668 -23.44,-18.641 -54.83,-27.953 -94.21,-27.953 -44.74,0 -80.42,14.121 -107.02,42.351 -26.6,28.231 -39.89,67.31 -39.89,117.25 0,50.5 13.34,89.83 40.04,117.96 26.69,28.14 62.8,42.21 108.32,42.21 37.25,0 66.88,-8.02 88.88,-24.05 21.98,-16.04 37.78,-40.48 47.39,-73.32"
         style="fill:#100f0d;fill-opacity:1;fill-rule:nonzero;stroke:none"
         transform="matrix(0.13333333,0,0,-0.13333333,0,294.49333)" />
      <path
         id="path40"
         d="m 6278.45,1344.46 v -155.27 c 26.12,30.53 57.33,45.8 93.63,45.8 18.62,0 35.43,-3.45 50.41,-10.37 14.98,-6.91 26.27,-15.75 33.86,-26.5 7.58,-10.76 12.76,-22.67 15.56,-35.73 2.78,-13.06 4.18,-33.32 4.18,-60.78 V 922.129 h -80.96 v 161.621 c 0,32.07 -1.54,52.43 -4.61,61.07 -3.08,8.64 -8.5,15.51 -16.28,20.6 -7.77,5.08 -17.53,7.63 -29.24,7.63 -13.45,0 -25.45,-3.26 -36,-9.79 -10.57,-6.53 -18.3,-16.38 -23.2,-29.53 -4.9,-13.16 -7.35,-32.61 -7.35,-58.34 V 922.129 h -80.95 v 422.331 h 80.95"
         style="fill:#100f0d;fill-opacity:1;fill-rule:nonzero;stroke:none"
         transform="matrix(0.13333333,0,0,-0.13333333,0,294.49333)" />
      <path
         id="path41"
         d="m 6739.97,1101.32 c -0.57,23.43 -6.63,41.24 -18.15,53.44 -11.53,12.19 -25.54,18.29 -42.05,18.29 -17.68,0 -32.27,-6.43 -43.79,-19.3 -11.53,-12.87 -17.2,-30.34 -17,-52.43 z m -4.61,-81.82 80.67,-13.53 c -10.37,-29.579 -26.75,-52.099 -49.12,-67.56 -22.38,-15.461 -50.37,-23.191 -83.98,-23.191 -53.2,0 -92.58,17.383 -118.11,52.152 -20.17,27.84 -30.25,62.979 -30.25,105.429 0,50.7 13.24,90.41 39.75,119.13 26.5,28.7 60.02,43.06 100.55,43.06 45.51,0 81.42,-15.03 107.74,-45.09 26.31,-30.05 38.9,-76.1 37.74,-138.13 h -202.81 c 0.57,-24 7.1,-42.69 19.59,-56.04 12.48,-13.351 28.04,-20.019 46.66,-20.019 12.68,0 23.34,3.461 31.98,10.379 8.65,6.91 15.17,18.05 19.59,33.41"
         style="fill:#100f0d;fill-opacity:1;fill-rule:nonzero;stroke:none"
         transform="matrix(0.13333333,0,0,-0.13333333,0,294.49333)" />
      <path
         id="path42"
         d="m 7164.61,922.129 h -80.96 v 156.141 c 0,33.04 -1.72,54.4 -5.18,64.1 -3.46,9.7 -9.07,17.24 -16.86,22.62 -7.77,5.37 -17.14,8.06 -28.08,8.06 -14.03,0 -26.6,-3.84 -37.75,-11.52 -11.13,-7.69 -18.77,-17.86 -22.9,-30.54 -4.13,-12.67 -6.19,-36.11 -6.19,-70.29 V 922.129 h -80.95 v 305.951 h 75.19 v -44.94 c 26.69,34.57 60.3,51.85 100.83,51.85 17.86,0 34.18,-3.22 48.97,-9.65 14.79,-6.44 25.98,-14.64 33.57,-24.63 7.58,-9.99 12.86,-21.32 15.84,-33.99 2.98,-12.68 4.47,-30.83 4.47,-54.45 V 922.129"
         style="fill:#100f0d;fill-opacity:1;fill-rule:nonzero;stroke:none"
         transform="matrix(0.13333333,0,0,-0.13333333,0,294.49333)" />
      <path
         id="path43"
         d="m 7410.63,1344.46 h 85.27 v -228.74 c 0,-36.29 1.05,-59.82 3.17,-70.58 3.65,-17.28 12.34,-31.15 26.08,-41.62 13.73,-10.469 32.5,-15.711 56.32,-15.711 24.2,0 42.44,4.953 54.73,14.841 12.29,9.89 19.69,22.04 22.18,36.44 2.5,14.41 3.75,38.32 3.75,71.74 v 233.63 h 85.27 v -221.82 c 0,-50.7 -2.3,-86.52 -6.91,-107.45 -4.61,-20.94 -13.11,-38.612 -25.5,-53.01 -12.38,-14.399 -28.95,-25.891 -49.7,-34.43 -20.74,-8.539 -47.81,-12.82 -81.23,-12.82 -40.33,0 -70.92,4.66 -91.75,13.968 -20.84,9.313 -37.31,21.411 -49.42,36.301 -12.09,14.879 -20.07,30.492 -23.9,46.811 -5.58,24.2 -8.36,59.93 -8.36,107.17 v 225.28"
         style="fill:#100f0d;fill-opacity:1;fill-rule:nonzero;stroke:none"
         transform="matrix(0.13333333,0,0,-0.13333333,0,294.49333)" />
      <path
         id="path44"
         d="m 8115,922.129 h -80.96 v 156.141 c 0,33.04 -1.72,54.4 -5.18,64.1 -3.46,9.7 -9.07,17.24 -16.86,22.62 -7.77,5.37 -17.13,8.06 -28.08,8.06 -14.03,0 -26.6,-3.84 -37.75,-11.52 -11.13,-7.69 -18.77,-17.86 -22.9,-30.54 -4.13,-12.67 -6.19,-36.11 -6.19,-70.29 V 922.129 h -80.95 v 305.951 h 75.19 v -44.94 c 26.69,34.57 60.3,51.85 100.83,51.85 17.86,0 34.18,-3.22 48.97,-9.65 14.79,-6.44 25.98,-14.64 33.57,-24.63 7.58,-9.99 12.86,-21.32 15.84,-33.99 2.98,-12.68 4.47,-30.83 4.47,-54.45 V 922.129"
         style="fill:#100f0d;fill-opacity:1;fill-rule:nonzero;stroke:none"
         transform="matrix(0.13333333,0,0,-0.13333333,0,294.49333)" />
      <path
         id="path45"
         d="m 8197.1,922.129 v 305.951 h 80.96 V 922.129 Z m 0,347.431 v 74.9 h 80.96 v -74.9 h -80.96"
         style="fill:#100f0d;fill-opacity:1;fill-rule:nonzero;stroke:none"
         transform="matrix(0.13333333,0,0,-0.13333333,0,294.49333)" />
      <path
         id="path46"
         d="m 8425.27,1075.1 c 0,-30.34 7.19,-53.57 21.61,-69.71 14.39,-16.128 32.16,-24.199 53.29,-24.199 21.12,0 38.84,8.071 53.15,24.199 14.31,16.14 21.47,39.56 21.47,70.29 0,29.96 -7.16,53.01 -21.47,69.14 -14.31,16.13 -32.03,24.2 -53.15,24.2 -21.13,0 -38.9,-8.07 -53.29,-24.2 -14.42,-16.13 -21.61,-39.37 -21.61,-69.72 z m -82.97,4.33 c 0,26.88 6.63,52.91 19.87,78.07 13.26,25.15 32.03,44.36 56.33,57.61 24.29,13.26 51.42,19.88 81.38,19.88 46.28,0 84.21,-15.03 113.79,-45.09 29.57,-30.05 44.37,-68.03 44.37,-113.93 0,-46.29 -14.93,-84.65 -44.8,-115.091 -29.87,-30.438 -67.46,-45.66 -112.79,-45.66 -28.04,0 -54.78,6.332 -80.22,19.011 -25.45,12.68 -44.8,31.258 -58.06,55.739 -13.24,24.491 -19.87,54.311 -19.87,89.461"
         style="fill:#100f0d;fill-opacity:1;fill-rule:nonzero;stroke:none"
         transform="matrix(0.13333333,0,0,-0.13333333,0,294.49333)" />
      <path
         id="path47"
         d="m 8999.72,922.129 h -80.96 v 156.141 c 0,33.04 -1.73,54.4 -5.18,64.1 -3.46,9.7 -9.08,17.24 -16.86,22.62 -7.77,5.37 -17.14,8.06 -28.09,8.06 -14.02,0 -26.6,-3.84 -37.74,-11.52 -11.13,-7.69 -18.77,-17.86 -22.9,-30.54 -4.13,-12.67 -6.19,-36.11 -6.19,-70.29 V 922.129 h -80.95 v 305.951 h 75.19 v -44.94 c 26.69,34.57 60.3,51.85 100.83,51.85 17.86,0 34.18,-3.22 48.97,-9.65 14.79,-6.44 25.98,-14.64 33.57,-24.63 7.57,-9.99 12.86,-21.32 15.84,-33.99 2.97,-12.68 4.47,-30.83 4.47,-54.45 V 922.129"
         style="fill:#100f0d;fill-opacity:1;fill-rule:nonzero;stroke:none"
         transform="matrix(0.13333333,0,0,-0.13333333,0,294.49333)" />
    </g>
  </g>
</svg>
