<?xml version="1.0" encoding="UTF-8" standalone="no"?>
<!-- Created with Inkscape (http://www.inkscape.org/) -->

<svg
   version="1.1"
   id="svg1"
   width="1043.1467"
   height="294.49332"
   viewBox="0 0 1043.1467 294.49332"
   sodipodi:docname="SL_Financira_Evropska_unija_RGB_BLACK_Outline.eps"
   xmlns:inkscape="http://www.inkscape.org/namespaces/inkscape"
   xmlns:sodipodi="http://sodipodi.sourceforge.net/DTD/sodipodi-0.dtd"
   xmlns="http://www.w3.org/2000/svg"
   xmlns:svg="http://www.w3.org/2000/svg">
  <defs
     id="defs1" />
  <sodipodi:namedview
     id="namedview1"
     pagecolor="#ffffff"
     bordercolor="#000000"
     borderopacity="0.25"
     inkscape:showpageshadow="2"
     inkscape:pageopacity="0.0"
     inkscape:pagecheckerboard="0"
     inkscape:deskcolor="#d1d1d1">
    <inkscape:page
       x="0"
       y="0"
       inkscape:label="1"
       id="page1"
       width="1043.1467"
       height="294.49332"
       margin="0"
       bleed="0" />
  </sodipodi:namedview>
  <g
     id="g1"
     inkscape:groupmode="layer"
     inkscape:label="1">
    <g
       id="group-R5">
      <path
         id="path2"
         d="M 2995.08,158.281 H 159.055 V 2048.98 H 2995.08 Z M 102.336,2103.9 V 101.059 H 3051.79 V 2103.9 H 102.336"
         style="fill:#100f0d;fill-opacity:1;fill-rule:nonzero;stroke:none"
         transform="matrix(0.13333333,0,0,-0.13333333,0,294.49333)" />
      <path
         id="path3"
         d="m 1516.64,1637.02 59.84,43.67 59.85,-43.67 -22.78,70.63 60.79,43.67 h -74.93 l -22.93,71.48 -22.93,-71.56 -74.88,0.08 60.74,-43.67 -22.77,-70.63"
         style="fill:#100f0d;fill-opacity:1;fill-rule:nonzero;stroke:none"
         transform="matrix(0.13333333,0,0,-0.13333333,0,294.49333)" />
      <path
         id="path4"
         d="m 1206.95,1553.82 59.84,43.67 59.81,-43.67 -22.74,70.63 60.75,43.67 h -74.93 l -22.92,71.56 -22.93,-71.64 -74.89,0.08 60.74,-43.67 -22.73,-70.63"
         style="fill:#100f0d;fill-opacity:1;fill-rule:nonzero;stroke:none"
         transform="matrix(0.13333333,0,0,-0.13333333,0,294.49333)" />
      <path
         id="path5"
         d="m 1040.19,1512.57 -22.93,-71.64 -74.881,0.08 60.741,-43.67 -22.772,-70.63 59.842,43.67 59.84,-43.67 -22.77,70.63 60.74,43.67 h -74.88 l -22.93,71.56"
         style="fill:#100f0d;fill-opacity:1;fill-rule:nonzero;stroke:none"
         transform="matrix(0.13333333,0,0,-0.13333333,0,294.49333)" />
      <path
         id="path6"
         d="m 957.066,1061.08 59.814,-43.67 -22.743,70.62 60.743,43.68 h -74.884 l -22.93,71.56 -22.929,-71.72 -74.918,0.16 60.777,-43.68 -22.769,-70.62 59.839,43.67"
         style="fill:#100f0d;fill-opacity:1;fill-rule:nonzero;stroke:none"
         transform="matrix(0.13333333,0,0,-0.13333333,0,294.49333)" />
      <path
         id="path7"
         d="m 1063.12,821.48 -22.93,71.559 -22.93,-71.641 -74.881,0.082 60.741,-43.671 -22.772,-70.629 59.842,43.75 59.84,-43.75 -22.77,70.629 60.74,43.671 h -74.88"
         style="fill:#100f0d;fill-opacity:1;fill-rule:nonzero;stroke:none"
         transform="matrix(0.13333333,0,0,-0.13333333,0,294.49333)" />
      <path
         id="path8"
         d="m 1290.15,594.449 -22.93,71.481 -22.89,-71.559 -74.92,0.078 60.74,-43.668 -22.73,-70.633 59.84,43.672 59.8,-43.672 -22.73,70.633 60.74,43.668 h -74.92"
         style="fill:#100f0d;fill-opacity:1;fill-rule:nonzero;stroke:none"
         transform="matrix(0.13333333,0,0,-0.13333333,0,294.49333)" />
      <path
         id="path9"
         d="m 1599.45,512.18 -22.93,71.558 -22.89,-71.636 -74.92,0.078 60.74,-43.668 -22.73,-70.633 59.84,43.672 59.8,-43.672 -22.77,70.633 60.78,43.668 h -74.92"
         style="fill:#100f0d;fill-opacity:1;fill-rule:nonzero;stroke:none"
         transform="matrix(0.13333333,0,0,-0.13333333,0,294.49333)" />
      <path
         id="path10"
         d="m 1908.75,594.449 -22.89,71.481 -22.97,-71.559 -74.84,0.078 60.7,-43.668 -22.73,-70.633 59.84,43.672 59.84,-43.672 -22.81,70.633 60.78,43.668 h -74.92"
         style="fill:#100f0d;fill-opacity:1;fill-rule:nonzero;stroke:none"
         transform="matrix(0.13333333,0,0,-0.13333333,0,294.49333)" />
      <path
         id="path11"
         d="m 2135.86,821.48 -22.97,71.559 -22.97,-71.641 -74.84,0.082 60.78,-43.671 -22.81,-70.629 59.84,43.75 59.84,-43.75 -22.81,70.629 60.78,43.671 h -74.84"
         style="fill:#100f0d;fill-opacity:1;fill-rule:nonzero;stroke:none"
         transform="matrix(0.13333333,0,0,-0.13333333,0,294.49333)" />
      <path
         id="path12"
         d="m 2292.97,1132.57 h -74.92 l -22.97,71.56 -22.89,-71.64 -74.92,0.08 60.78,-43.67 -22.74,-70.63 59.77,43.75 59.84,-43.75 -22.73,70.63 60.78,43.67"
         style="fill:#100f0d;fill-opacity:1;fill-rule:nonzero;stroke:none"
         transform="matrix(0.13333333,0,0,-0.13333333,0,294.49333)" />
      <path
         id="path13"
         d="m 2053.04,1327.65 59.84,43.67 59.85,-43.67 -22.81,70.63 60.78,43.59 h -74.85 l -22.97,71.56 -22.96,-71.64 -74.85,0.08 60.78,-43.59 -22.81,-70.63"
         style="fill:#100f0d;fill-opacity:1;fill-rule:nonzero;stroke:none"
         transform="matrix(0.13333333,0,0,-0.13333333,0,294.49333)" />
      <path
         id="path14"
         d="m 1886.72,1739.6 -22.89,-71.64 -74.92,0.16 60.7,-43.75 -22.73,-70.63 59.92,43.75 59.76,-43.75 -22.73,70.63 60.78,43.75 h -75 l -22.89,71.48"
         style="fill:#100f0d;fill-opacity:1;fill-rule:nonzero;stroke:none"
         transform="matrix(0.13333333,0,0,-0.13333333,0,294.49333)" />
      <text
         id="text14"
         xml:space="preserve"
         transform="matrix(1.3333333,0,0,1.3333333,440.91467,273.3012)"><tspan
           id="tspan14"
           style="font-variant:normal;font-weight:normal;font-size:51px;font-family:Arial;writing-mode:lr-tb;fill:#100f0d;fill-opacity:1;fill-rule:nonzero;stroke:none"
           x="0"
           dx="0 0.00910646 0.0072997799 0 -0.0081054801 -0.0090820296 0.0083007598 0.0072754002 0.0073242099 0 0.0072754002 -0.0080566201 0.0080566201 0.0073242099 0.0083007598"
           y="0">NextGenerationEU</tspan></text>
      <path
         id="path15"
         d="m 3346.54,1630.34 v 422.34 h 289.54 v -71.45 h -204.26 v -99.96 h 176.31 v -71.45 h -176.31 v -179.48 h -85.28"
         style="fill:#100f0d;fill-opacity:1;fill-rule:nonzero;stroke:none"
         transform="matrix(0.13333333,0,0,-0.13333333,0,294.49333)" />
      <path
         id="path16"
         d="m 3705.78,1630.34 v 305.95 h 80.96 v -305.95 z m 0,347.43 v 74.91 h 80.96 v -74.91 h -80.96"
         style="fill:#100f0d;fill-opacity:1;fill-rule:nonzero;stroke:none"
         transform="matrix(0.13333333,0,0,-0.13333333,0,294.49333)" />
      <path
         id="path17"
         d="m 4148.01,1630.34 h -80.96 v 156.14 c 0,33.04 -1.73,54.4 -5.18,64.11 -3.46,9.69 -9.08,17.23 -16.86,22.61 -7.77,5.37 -17.14,8.07 -28.08,8.07 -14.03,0 -26.61,-3.85 -37.75,-11.53 -11.13,-7.69 -18.77,-17.86 -22.9,-30.54 -4.13,-12.67 -6.19,-36.1 -6.19,-70.29 v -138.57 h -80.95 v 305.95 h 75.19 v -44.94 c 26.69,34.57 60.3,51.85 100.83,51.85 17.86,0 34.18,-3.22 48.97,-9.65 14.79,-6.44 25.98,-14.64 33.57,-24.63 7.58,-9.99 12.86,-21.32 15.84,-33.99 2.98,-12.68 4.47,-30.83 4.47,-54.45 v -190.14"
         style="fill:#100f0d;fill-opacity:1;fill-rule:nonzero;stroke:none"
         transform="matrix(0.13333333,0,0,-0.13333333,0,294.49333)" />
      <path
         id="path18"
         d="m 4398.93,1777.27 c -10.37,-3.46 -26.8,-7.59 -49.27,-12.39 -22.47,-4.81 -37.16,-9.51 -44.07,-14.12 -10.57,-7.49 -15.85,-16.99 -15.85,-28.52 0,-11.33 4.22,-21.13 12.67,-29.38 8.45,-8.27 19.2,-12.39 32.27,-12.39 14.59,0 28.52,4.8 41.77,14.41 9.8,7.29 16.23,16.22 19.3,26.79 2.11,6.91 3.18,20.06 3.18,39.46 z m -108.32,65.68 -73.47,13.25 c 8.25,29.58 22.47,51.47 42.64,65.69 20.16,14.2 50.12,21.31 89.88,21.31 36.1,0 62.99,-4.27 80.66,-12.82 17.67,-8.54 30.11,-19.4 37.31,-32.55 7.21,-13.16 10.81,-37.31 10.81,-72.45 l -0.87,-94.5 c 0,-26.88 1.3,-46.71 3.89,-59.48 2.59,-12.78 7.44,-26.46 14.55,-41.06 h -80.09 c -2.12,5.38 -4.71,13.35 -7.77,23.91 -1.35,4.8 -2.31,7.97 -2.89,9.51 -13.83,-13.45 -28.62,-23.53 -44.36,-30.25 -15.75,-6.72 -32.56,-10.08 -50.42,-10.08 -31.5,0 -56.32,8.54 -74.47,25.64 -18.15,17.09 -27.22,38.7 -27.22,64.82 0,17.28 4.12,32.69 12.38,46.24 8.26,13.53 19.83,23.91 34.72,31.11 14.88,7.2 36.34,13.49 64.39,18.87 37.83,7.1 64.05,13.73 78.65,19.87 v 8.07 c 0,15.56 -3.85,26.65 -11.53,33.28 -7.68,6.62 -22.18,9.94 -43.5,9.94 -14.41,0 -25.64,-2.84 -33.7,-8.5 -8.07,-5.67 -14.6,-15.61 -19.59,-29.82"
         style="fill:#100f0d;fill-opacity:1;fill-rule:nonzero;stroke:none"
         transform="matrix(0.13333333,0,0,-0.13333333,0,294.49333)" />
      <path
         id="path19"
         d="m 4836.54,1630.34 h -80.96 v 156.14 c 0,33.04 -1.73,54.4 -5.19,64.11 -3.45,9.69 -9.07,17.23 -16.85,22.61 -7.78,5.37 -17.14,8.07 -28.09,8.07 -14.02,0 -26.6,-3.85 -37.74,-11.53 -11.14,-7.69 -18.77,-17.86 -22.9,-30.54 -4.13,-12.67 -6.19,-36.1 -6.19,-70.29 v -138.57 h -80.95 v 305.95 h 75.18 v -44.94 c 26.69,34.57 60.31,51.85 100.83,51.85 17.86,0 34.18,-3.22 48.98,-9.65 14.78,-6.44 25.97,-14.64 33.56,-24.63 7.58,-9.99 12.86,-21.32 15.84,-33.99 2.98,-12.68 4.48,-30.83 4.48,-54.45 v -190.14"
         style="fill:#100f0d;fill-opacity:1;fill-rule:nonzero;stroke:none"
         transform="matrix(0.13333333,0,0,-0.13333333,0,294.49333)" />
      <path
         id="path20"
         d="m 5185.41,1845.83 -79.8,-14.4 c -2.7,15.93 -8.79,27.94 -18.29,36.01 -9.52,8.06 -21.86,12.1 -37.03,12.1 -20.16,0 -36.25,-6.97 -48.25,-20.89 -12.01,-13.93 -18,-37.21 -18,-69.86 0,-36.3 6.09,-61.94 18.29,-76.92 12.19,-14.98 28.56,-22.47 49.12,-22.47 15.36,0 27.95,4.37 37.73,13.11 9.81,8.74 16.72,23.76 20.74,45.08 l 79.52,-13.54 c -8.26,-36.49 -24.11,-64.05 -47.53,-82.67 -23.44,-18.64 -54.84,-27.95 -94.21,-27.95 -44.75,0 -80.42,14.11 -107.02,42.35 -26.61,28.23 -39.9,67.31 -39.9,117.25 0,50.51 13.34,89.83 40.04,117.97 26.69,28.13 62.8,42.2 108.32,42.2 37.26,0 66.89,-8.02 88.88,-24.05 21.98,-16.04 37.78,-40.48 47.39,-73.32"
         style="fill:#100f0d;fill-opacity:1;fill-rule:nonzero;stroke:none"
         transform="matrix(0.13333333,0,0,-0.13333333,0,294.49333)" />
      <path
         id="path21"
         d="m 5246.76,1630.34 v 305.95 h 80.96 v -305.95 z m 0,347.43 v 74.91 h 80.96 v -74.91 h -80.96"
         style="fill:#100f0d;fill-opacity:1;fill-rule:nonzero;stroke:none"
         transform="matrix(0.13333333,0,0,-0.13333333,0,294.49333)" />
      <path
         id="path22"
         d="m 5488.18,1630.34 h -80.95 v 305.95 h 75.19 v -43.5 c 12.86,20.55 24.44,34.09 34.72,40.62 10.27,6.53 21.93,9.79 35,9.79 18.44,0 36.2,-5.09 53.29,-15.27 l -25.06,-70.57 c -13.64,8.83 -26.32,13.25 -38.03,13.25 -11.33,0 -20.93,-3.13 -28.8,-9.37 -7.88,-6.24 -14.08,-17.53 -18.59,-33.85 -4.51,-16.32 -6.77,-50.51 -6.77,-102.55 v -94.5"
         style="fill:#100f0d;fill-opacity:1;fill-rule:nonzero;stroke:none"
         transform="matrix(0.13333333,0,0,-0.13333333,0,294.49333)" />
      <path
         id="path23"
         d="m 5809.11,1777.27 c -10.37,-3.46 -26.79,-7.59 -49.27,-12.39 -22.47,-4.81 -37.15,-9.51 -44.07,-14.12 -10.56,-7.49 -15.85,-16.99 -15.85,-28.52 0,-11.33 4.22,-21.13 12.68,-29.38 8.45,-8.27 19.2,-12.39 32.26,-12.39 14.59,0 28.53,4.8 41.77,14.41 9.81,7.29 16.23,16.22 19.31,26.79 2.11,6.91 3.17,20.06 3.17,39.46 z m -108.32,65.68 -73.46,13.25 c 8.25,29.58 22.47,51.47 42.63,65.69 20.17,14.2 50.13,21.31 89.88,21.31 36.11,0 62.99,-4.27 80.67,-12.82 17.67,-8.54 30.11,-19.4 37.3,-32.55 7.21,-13.16 10.81,-37.31 10.81,-72.45 l -0.86,-94.5 c 0,-26.88 1.29,-46.71 3.88,-59.48 2.6,-12.78 7.44,-26.46 14.55,-41.06 h -80.09 c -2.11,5.38 -4.7,13.35 -7.77,23.91 -1.35,4.8 -2.3,7.97 -2.89,9.51 -13.83,-13.45 -28.61,-23.53 -44.35,-30.25 -15.76,-6.72 -32.56,-10.08 -50.42,-10.08 -31.51,0 -56.32,8.54 -74.48,25.64 -18.14,17.09 -27.21,38.7 -27.21,64.82 0,17.28 4.12,32.69 12.38,46.24 8.25,13.53 19.82,23.91 34.72,31.11 14.88,7.2 36.33,13.49 64.38,18.87 37.83,7.1 64.05,13.73 78.65,19.87 v 8.07 c 0,15.56 -3.85,26.65 -11.52,33.28 -7.69,6.62 -22.19,9.94 -43.51,9.94 -14.4,0 -25.63,-2.84 -33.7,-8.5 -8.06,-5.67 -14.6,-15.61 -19.59,-29.82"
         style="fill:#100f0d;fill-opacity:1;fill-rule:nonzero;stroke:none"
         transform="matrix(0.13333333,0,0,-0.13333333,0,294.49333)" />
      <path
         id="path24"
         d="m 3345.98,922.34 v 422.34 h 313.14 v -71.45 h -227.87 v -93.62 h 212.03 v -71.16 H 3431.25 V 993.512 h 235.94 V 922.34 h -321.21"
         style="fill:#100f0d;fill-opacity:1;fill-rule:nonzero;stroke:none"
         transform="matrix(0.13333333,0,0,-0.13333333,0,294.49333)" />
      <path
         id="path25"
         d="m 3823.04,922.34 -123.3,305.95 h 84.99 l 57.62,-156.14 16.7,-52.14 c 4.42,13.25 7.21,21.98 8.36,26.21 2.69,8.64 5.57,17.29 8.64,25.93 l 58.2,156.14 h 83.25 L 3895.93,922.34 h -72.89"
         style="fill:#100f0d;fill-opacity:1;fill-rule:nonzero;stroke:none"
         transform="matrix(0.13333333,0,0,-0.13333333,0,294.49333)" />
      <path
         id="path26"
         d="m 4144.55,922.34 h -80.95 v 305.95 h 75.19 v -43.5 c 12.86,20.55 24.43,34.09 34.72,40.62 10.27,6.53 21.93,9.8 35,9.8 18.44,0 36.2,-5.1 53.29,-15.27 l -25.06,-70.58 c -13.64,8.83 -26.32,13.25 -38.03,13.25 -11.34,0 -20.93,-3.13 -28.81,-9.37 -7.88,-6.24 -14.07,-17.52 -18.58,-33.84 -4.51,-16.33 -6.77,-50.52 -6.77,-102.56 v -94.5"
         style="fill:#100f0d;fill-opacity:1;fill-rule:nonzero;stroke:none"
         transform="matrix(0.13333333,0,0,-0.13333333,0,294.49333)" />
      <path
         id="path27"
         d="m 4360.9,1075.32 c 0,-30.35 7.2,-53.58 21.61,-69.71 14.4,-16.141 32.16,-24.2 53.29,-24.2 21.13,0 38.84,8.059 53.16,24.2 14.3,16.13 21.46,39.55 21.46,70.28 0,29.97 -7.16,53.01 -21.46,69.14 -14.32,16.14 -32.03,24.2 -53.16,24.2 -21.13,0 -38.89,-8.06 -53.29,-24.2 -14.41,-16.13 -21.61,-39.37 -21.61,-69.71 z m -82.97,4.32 c 0,26.88 6.63,52.91 19.87,78.07 13.27,25.16 32.04,44.37 56.33,57.62 24.29,13.25 51.43,19.88 81.39,19.88 46.28,0 84.21,-15.03 113.79,-45.09 29.57,-30.06 44.36,-68.04 44.36,-113.94 0,-46.29 -14.93,-84.649 -44.79,-115.09 -29.87,-30.442 -67.46,-45.66 -112.79,-45.66 -28.04,0 -54.79,6.34 -80.23,19.011 -25.45,12.68 -44.79,31.258 -58.06,55.75 -13.24,24.489 -19.87,54.299 -19.87,89.449"
         style="fill:#100f0d;fill-opacity:1;fill-rule:nonzero;stroke:none"
         transform="matrix(0.13333333,0,0,-0.13333333,0,294.49333)" />
      <path
         id="path28"
         d="m 4734.85,1080.5 c 0,-34.38 6.8,-59.78 20.44,-76.19 13.64,-16.431 30.26,-24.63 49.85,-24.63 18.82,0 34.46,7.531 46.95,22.61 12.48,15.07 18.73,39.8 18.73,74.18 0,32.07 -6.44,55.89 -19.3,71.45 -12.88,15.55 -28.81,23.33 -47.83,23.33 -19.78,0 -36.2,-7.64 -49.25,-22.9 -13.07,-15.27 -19.59,-37.89 -19.59,-67.85 z m -80.1,147.79 h 75.49 v -44.94 c 9.78,15.36 23.04,27.85 39.74,37.45 16.72,9.6 35.25,14.41 55.61,14.41 35.53,0 65.68,-13.93 90.46,-41.78 24.77,-27.85 37.15,-66.64 37.15,-116.38 0,-51.09 -12.48,-90.8 -37.44,-119.128 -24.97,-28.332 -55.22,-42.492 -90.75,-42.492 -16.9,0 -32.22,3.371 -45.95,10.09 -13.74,6.718 -28.19,18.242 -43.36,34.57 V 805.961 h -80.95 v 422.329"
         style="fill:#100f0d;fill-opacity:1;fill-rule:nonzero;stroke:none"
         transform="matrix(0.13333333,0,0,-0.13333333,0,294.49333)" />
      <path
         id="path29"
         d="m 4988.93,1009.64 81.24,12.38 c 3.45,-15.75 10.47,-27.7 21.02,-35.872 10.57,-8.16 25.35,-12.226 44.38,-12.226 20.93,0 36.68,3.828 47.24,11.519 7.1,5.368 10.66,12.579 10.66,21.599 0,6.14 -1.93,11.24 -5.76,15.27 -4.04,3.84 -13.07,7.4 -27.08,10.66 -65.31,14.4 -106.69,27.56 -124.16,39.47 -24.2,16.51 -36.31,39.46 -36.31,68.85 0,26.5 10.47,48.78 31.4,66.84 20.93,18.05 53.39,27.08 97.38,27.08 41.86,0 72.98,-6.83 93.34,-20.46 20.35,-13.64 34.37,-33.8 42.06,-60.5 l -76.35,-14.11 c -3.26,11.9 -9.45,21.03 -18.57,27.37 -9.13,6.33 -22.14,9.5 -39.05,9.5 -21.31,0 -36.58,-2.98 -45.8,-8.93 -6.15,-4.23 -9.22,-9.7 -9.22,-16.42 0,-5.76 2.69,-10.66 8.07,-14.69 7.29,-5.38 32.5,-12.97 75.62,-22.76 43.12,-9.8 73.22,-21.8 90.32,-36.01 16.89,-14.41 25.35,-34.48 25.35,-60.21 0,-28.041 -11.72,-52.138 -35.15,-72.31 -23.44,-20.16 -58.09,-30.25 -103.99,-30.25 -41.68,0 -74.67,8.449 -98.97,25.351 -24.29,16.91 -40.18,39.86 -47.67,68.859"
         style="fill:#100f0d;fill-opacity:1;fill-rule:nonzero;stroke:none"
         transform="matrix(0.13333333,0,0,-0.13333333,0,294.49333)" />
      <path
         id="path30"
         d="m 5342.7,922.34 v 422.34 h 80.94 v -224.13 l 94.78,107.74 h 99.69 l -104.58,-111.78 112.06,-194.17 h -87.29 l -76.91,137.42 -37.75,-39.47 v -97.95 h -80.94"
         style="fill:#100f0d;fill-opacity:1;fill-rule:nonzero;stroke:none"
         transform="matrix(0.13333333,0,0,-0.13333333,0,294.49333)" />
      <path
         id="path31"
         d="m 5842.53,1069.27 c -10.37,-3.46 -26.8,-7.59 -49.27,-12.39 -22.47,-4.8 -37.16,-9.51 -44.07,-14.12 -10.57,-7.49 -15.85,-16.99 -15.85,-28.51 0,-11.34 4.22,-21.129 12.68,-29.391 8.44,-8.257 19.2,-12.39 32.26,-12.39 14.59,0 28.53,4.812 41.77,14.41 9.8,7.293 16.23,16.231 19.31,26.791 2.11,6.92 3.17,20.07 3.17,39.47 z m -108.32,65.68 -73.47,13.25 c 8.26,29.58 22.47,51.47 42.64,65.69 20.17,14.21 50.13,21.32 89.88,21.32 36.11,0 62.99,-4.28 80.67,-12.83 17.66,-8.54 30.1,-19.4 37.3,-32.55 7.21,-13.15 10.81,-37.31 10.81,-72.45 l -0.87,-94.49 c 0,-26.89 1.3,-46.718 3.89,-59.492 2.6,-12.769 7.44,-26.457 14.55,-41.058 h -80.09 c -2.12,5.39 -4.7,13.351 -7.77,23.922 -1.35,4.797 -2.31,7.968 -2.89,9.5 -13.83,-13.453 -28.61,-23.524 -44.36,-30.242 -15.75,-6.719 -32.56,-10.09 -50.42,-10.09 -31.5,0 -56.32,8.55 -74.47,25.64 -18.14,17.09 -27.22,38.7 -27.22,64.82 0,17.28 4.12,32.69 12.39,46.24 8.25,13.53 19.82,23.91 34.71,31.11 14.89,7.2 36.34,13.49 64.39,18.87 37.83,7.1 64.05,13.73 78.65,19.88 v 8.06 c 0,15.56 -3.85,26.65 -11.52,33.28 -7.69,6.62 -22.19,9.94 -43.51,9.94 -14.4,0 -25.63,-2.84 -33.7,-8.5 -8.07,-5.67 -14.6,-15.61 -19.59,-29.82"
         style="fill:#100f0d;fill-opacity:1;fill-rule:nonzero;stroke:none"
         transform="matrix(0.13333333,0,0,-0.13333333,0,294.49333)" />
      <path
         id="path32"
         d="m 6367.13,922.34 v 45.808 c -11.14,-16.32 -25.78,-29.187 -43.94,-38.597 -18.14,-9.41 -37.3,-14.121 -57.47,-14.121 -20.55,0 -38.99,4.519 -55.31,13.55 -16.33,9.02 -28.13,21.692 -35.44,38.02 -7.29,16.32 -10.94,38.89 -10.94,67.7 v 193.59 h 80.95 v -140.58 c 0,-43.03 1.49,-69.39 4.46,-79.09 2.98,-9.69 8.4,-17.382 16.28,-23.042 7.87,-5.668 17.87,-8.5 29.96,-8.5 13.83,0 26.23,3.793 37.16,11.383 10.96,7.59 18.44,16.999 22.48,28.229 4.03,11.24 6.05,38.75 6.05,82.54 v 129.06 h 80.95 V 922.34 h -75.19"
         style="fill:#100f0d;fill-opacity:1;fill-rule:nonzero;stroke:none"
         transform="matrix(0.13333333,0,0,-0.13333333,0,294.49333)" />
      <path
         id="path33"
         d="m 6804.45,922.34 h -80.95 v 156.15 c 0,33.03 -1.73,54.4 -5.19,64.1 -3.46,9.69 -9.07,17.23 -16.85,22.61 -7.78,5.38 -17.14,8.07 -28.09,8.07 -14.02,0 -26.6,-3.85 -37.74,-11.53 -11.14,-7.68 -18.77,-17.86 -22.9,-30.53 -4.14,-12.68 -6.2,-36.11 -6.2,-70.3 V 922.34 h -80.94 v 305.95 h 75.18 v -44.94 c 26.69,34.57 60.31,51.86 100.83,51.86 17.86,0 34.18,-3.22 48.98,-9.65 14.78,-6.44 25.97,-14.65 33.56,-24.64 7.58,-9.99 12.86,-21.31 15.84,-33.99 2.98,-12.68 4.47,-30.83 4.47,-54.45 V 922.34"
         style="fill:#100f0d;fill-opacity:1;fill-rule:nonzero;stroke:none"
         transform="matrix(0.13333333,0,0,-0.13333333,0,294.49333)" />
      <path
         id="path34"
         d="m 6886.54,922.34 v 305.95 h 80.96 V 922.34 Z m 0,347.44 v 74.9 h 80.96 v -74.9 h -80.96"
         style="fill:#100f0d;fill-opacity:1;fill-rule:nonzero;stroke:none"
         transform="matrix(0.13333333,0,0,-0.13333333,0,294.49333)" />
      <path
         id="path35"
         d="m 7048.75,1269.78 v 74.9 h 80.95 v -74.9 z m 80.95,-41.49 V 931.859 c 0,-38.988 -2.55,-66.507 -7.64,-82.539 -5.09,-16.039 -14.88,-28.57 -29.38,-37.601 -14.5,-9.02 -32.99,-13.539 -55.45,-13.539 -8.07,0 -16.77,0.718 -26.08,2.16 -9.31,1.441 -19.34,3.609 -30.1,6.492 l 14.11,69.137 c 3.85,-0.77 7.45,-1.399 10.81,-1.879 3.36,-0.481 6.47,-0.719 9.36,-0.719 8.26,0 15.02,1.777 20.31,5.328 5.28,3.563 8.79,7.832 10.51,12.821 1.73,4.992 2.6,19.968 2.6,44.949 v 291.821 h 80.95"
         style="fill:#100f0d;fill-opacity:1;fill-rule:nonzero;stroke:none"
         transform="matrix(0.13333333,0,0,-0.13333333,0,294.49333)" />
      <path
         id="path36"
         d="m 7383.21,1069.27 c -10.37,-3.46 -26.79,-7.59 -49.26,-12.39 -22.47,-4.8 -37.16,-9.51 -44.08,-14.12 -10.56,-7.49 -15.85,-16.99 -15.85,-28.51 0,-11.34 4.22,-21.129 12.68,-29.391 8.45,-8.257 19.2,-12.39 32.27,-12.39 14.59,0 28.52,4.812 41.76,14.41 9.81,7.293 16.23,16.231 19.31,26.791 2.11,6.92 3.17,20.07 3.17,39.47 z m -108.32,65.68 -73.46,13.25 c 8.25,29.58 22.47,51.47 42.63,65.69 20.17,14.21 50.13,21.32 89.89,21.32 36.1,0 62.98,-4.28 80.66,-12.83 17.67,-8.54 30.11,-19.4 37.31,-32.55 7.2,-13.15 10.81,-37.31 10.81,-72.45 l -0.87,-94.49 c 0,-26.89 1.3,-46.718 3.88,-59.492 2.6,-12.769 7.44,-26.457 14.55,-41.058 h -80.08 c -2.12,5.39 -4.71,13.351 -7.78,23.922 -1.34,4.797 -2.3,7.968 -2.89,9.5 -13.83,-13.453 -28.61,-23.524 -44.35,-30.242 -15.76,-6.719 -32.56,-10.09 -50.42,-10.09 -31.51,0 -56.32,8.55 -74.48,25.64 -18.14,17.09 -27.21,38.7 -27.21,64.82 0,17.28 4.12,32.69 12.38,46.24 8.25,13.53 19.82,23.91 34.72,31.11 14.88,7.2 36.33,13.49 64.38,18.87 37.83,7.1 64.05,13.73 78.65,19.88 v 8.06 c 0,15.56 -3.84,26.65 -11.52,33.28 -7.68,6.62 -22.19,9.94 -43.51,9.94 -14.4,0 -25.63,-2.84 -33.7,-8.5 -8.06,-5.67 -14.6,-15.61 -19.59,-29.82"
         style="fill:#100f0d;fill-opacity:1;fill-rule:nonzero;stroke:none"
         transform="matrix(0.13333333,0,0,-0.13333333,0,294.49333)" />
    </g>
  </g>
</svg>
